<?xml version="1.0" encoding="UTF-8"?><svg xmlns="http://www.w3.org/2000/svg" xmlns:xlink="http://www.w3.org/1999/xlink" contentScriptType="application/ecmascript" contentStyleType="text/css" height="499px" preserveAspectRatio="none" style="width:1224px;height:499px;" version="1.1" viewBox="0 0 1224 499" width="1224px" zoomAndPan="magnify">
    <defs>
        <filter height="300%" id="f49f6kacghvks" width="300%" x="-1" y="-1">
            <feGaussianBlur result="blurOut" stdDeviation="2.0"/>
            <feColorMatrix in="blurOut" result="blurOut2" type="matrix" values="0 0 0 0 0 0 0 0 0 0 0 0 0 0 0 0 0 0 .4 0"/>
            <feOffset dx="4.0" dy="4.0" in="blurOut2" result="blurOut3"/>
            <feBlend in="SourceGraphic" in2="blurOut3" mode="normal"/>
        </filter>
    </defs>
    <g>
        <rect fill="none" height="37.9375" style="stroke:none;stroke-width:1.0;" width="919" x="145.5" y="5"/>
        <text fill="#000000" font-family="sans-serif" font-size="24" font-weight="bold" lengthAdjust="spacing" textLength="909" x="150.5" y="32.2773">Simple Uml Diagram For Foods Library (Not all relationships shown)</text>
        <!--MD5=[7db3c59d38ae5b37b484eb2df9368145]
cluster java.util-->
        <polygon fill="#FFFFFF" filter="url(#f49f6kacghvks)" points="991,393.9375,1057,393.9375,1064,416.2344,1207,416.2344,1207,492.9375,991,492.9375,991,393.9375" style="stroke:#000000;stroke-width:2.0;"/>
        <line style="stroke:#000000;stroke-width:2.0;" x1="991" x2="1064" y1="416.2344" y2="416.2344"/>
        <text fill="#000000" font-family="sans-serif" font-size="14" font-weight="bold" lengthAdjust="spacing" textLength="60" x="995" y="408.9326">java.util</text>
        <!--MD5=[1f10c24ee3bcbe65d3f72ed88b4c20d3]
cluster io.github.xjrga.foods-->
        <polygon fill="#FFFFFF" filter="url(#f49f6kacghvks)" points="16,54.9375,185,54.9375,192,77.2344,650,77.2344,650,492.9375,16,492.9375,16,54.9375" style="stroke:#000000;stroke-width:2.0;"/>
        <line style="stroke:#000000;stroke-width:2.0;" x1="16" x2="192" y1="77.2344" y2="77.2344"/>
        <text fill="#000000" font-family="sans-serif" font-size="14" font-weight="bold" lengthAdjust="spacing" textLength="163" x="20" y="69.9326">io.github.xjrga.foods</text>
        <!--MD5=[d47607d45a3c83c10700ee784b177eb7]
cluster io.github.xjrga.foods.data-->
        <polygon fill="#FFFFFF" filter="url(#f49f6kacghvks)" points="674,270.9375,882,270.9375,889,293.2344,1026,293.2344,1026,369.9375,674,369.9375,674,270.9375" style="stroke:#000000;stroke-width:2.0;"/>
        <line style="stroke:#000000;stroke-width:2.0;" x1="674" x2="889" y1="293.2344" y2="293.2344"/>
        <text fill="#000000" font-family="sans-serif" font-size="14" font-weight="bold" lengthAdjust="spacing" textLength="202" x="678" y="285.9326">io.github.xjrga.foods.data</text>
        <!--MD5=[8479184e23c2bec09445fccfd361f5d2]
class java.util.ArrayList-->
        <rect codeLine="8" fill="#FEFECE" filter="url(#f49f6kacghvks)" height="48" id="java.util.ArrayList" style="stroke:#A80036;stroke-width:1.5;" width="184" x="1007" y="428.9375"/>
        <ellipse cx="1022" cy="444.9375" fill="#ADD1B2" rx="11" ry="11" style="stroke:#A80036;stroke-width:1.0;"/>
        <path d="M1024.9688,450.5781 Q1024.3906,450.875 1023.75,451.0156 Q1023.1094,451.1719 1022.4063,451.1719 Q1019.9063,451.1719 1018.5781,449.5313 Q1017.2656,447.875 1017.2656,444.75 Q1017.2656,441.625 1018.5781,439.9688 Q1019.9063,438.3125 1022.4063,438.3125 Q1023.1094,438.3125 1023.75,438.4688 Q1024.4063,438.625 1024.9688,438.9219 L1024.9688,441.6406 Q1024.3438,441.0625 1023.75,440.7969 Q1023.1563,440.5156 1022.5313,440.5156 Q1021.1875,440.5156 1020.5,441.5938 Q1019.8125,442.6563 1019.8125,444.75 Q1019.8125,446.8438 1020.5,447.9219 Q1021.1875,448.9844 1022.5313,448.9844 Q1023.1563,448.9844 1023.75,448.7188 Q1024.3438,448.4375 1024.9688,447.8594 L1024.9688,450.5781 Z " fill="#000000"/>
        <text fill="#000000" font-family="sans-serif" font-size="14" lengthAdjust="spacing" textLength="57" x="1036" y="449.7842">ArrayList</text>
        <rect fill="#FFFFFF" height="15.9688" style="stroke:#000000;stroke-width:1.0;stroke-dasharray:2.0,2.0;" width="93" x="1101" y="425.9375"/>
        <text fill="#000000" font-family="sans-serif" font-size="12" font-style="italic" lengthAdjust="spacing" textLength="91" x="1102" y="438.0762">Interface_food</text>
        <line style="stroke:#A80036;stroke-width:1.5;" x1="1008" x2="1190" y1="460.9375" y2="460.9375"/>
        <line style="stroke:#A80036;stroke-width:1.5;" x1="1008" x2="1190" y1="468.9375" y2="468.9375"/>
        <!--MD5=[58f110b416e99e66083c42f0b12babe0]
class io.github.xjrga.foods.Food_creator-->
        <rect codeLine="9" fill="#FEFECE" filter="url(#f49f6kacghvks)" height="48" id="io.github.xjrga.foods.Food_creator" style="stroke:#A80036;stroke-width:1.5;" width="123" x="32.5" y="89.9375"/>
        <ellipse cx="47.5" cy="105.9375" fill="#ADD1B2" rx="11" ry="11" style="stroke:#A80036;stroke-width:1.0;"/>
        <path d="M50.4688,111.5781 Q49.8906,111.875 49.25,112.0156 Q48.6094,112.1719 47.9063,112.1719 Q45.4063,112.1719 44.0781,110.5313 Q42.7656,108.875 42.7656,105.75 Q42.7656,102.625 44.0781,100.9688 Q45.4063,99.3125 47.9063,99.3125 Q48.6094,99.3125 49.25,99.4688 Q49.9063,99.625 50.4688,99.9219 L50.4688,102.6406 Q49.8438,102.0625 49.25,101.7969 Q48.6563,101.5156 48.0313,101.5156 Q46.6875,101.5156 46,102.5938 Q45.3125,103.6563 45.3125,105.75 Q45.3125,107.8438 46,108.9219 Q46.6875,109.9844 48.0313,109.9844 Q48.6563,109.9844 49.25,109.7188 Q49.8438,109.4375 50.4688,108.8594 L50.4688,111.5781 Z " fill="#000000"/>
        <text fill="#000000" font-family="sans-serif" font-size="14" lengthAdjust="spacing" textLength="91" x="61.5" y="110.7842">Food_creator</text>
        <line style="stroke:#A80036;stroke-width:1.5;" x1="33.5" x2="154.5" y1="121.9375" y2="121.9375"/>
        <line style="stroke:#A80036;stroke-width:1.5;" x1="33.5" x2="154.5" y1="129.9375" y2="129.9375"/>
        <!--MD5=[e84fb5d5dec21c385653d68123dacc72]
class io.github.xjrga.foods.Interface_food-->
        <rect codeLine="12" fill="#FEFECE" filter="url(#f49f6kacghvks)" height="48" id="io.github.xjrga.foods.Interface_food" style="stroke:#A80036;stroke-width:1.5;" width="131" x="298.5" y="197.9375"/>
        <ellipse cx="313.5" cy="213.9375" fill="#B4A7E5" rx="11" ry="11" style="stroke:#A80036;stroke-width:1.0;"/>
        <path d="M309.4219,209.7031 L309.4219,207.5469 L316.8125,207.5469 L316.8125,209.7031 L314.3438,209.7031 L314.3438,217.7813 L316.8125,217.7813 L316.8125,219.9375 L309.4219,219.9375 L309.4219,217.7813 L311.8906,217.7813 L311.8906,209.7031 L309.4219,209.7031 Z " fill="#000000"/>
        <text fill="#000000" font-family="sans-serif" font-size="14" font-style="italic" lengthAdjust="spacing" textLength="99" x="327.5" y="218.7842">Interface_food</text>
        <line style="stroke:#A80036;stroke-width:1.5;" x1="299.5" x2="428.5" y1="229.9375" y2="229.9375"/>
        <line style="stroke:#A80036;stroke-width:1.5;" x1="299.5" x2="428.5" y1="237.9375" y2="237.9375"/>
        <!--MD5=[46a6121b60701f0336e995874f643495]
class io.github.xjrga.foods.Interface_food_mutable-->
        <rect codeLine="13" fill="#FEFECE" filter="url(#f49f6kacghvks)" height="48" id="io.github.xjrga.foods.Interface_food_mutable" style="stroke:#A80036;stroke-width:1.5;" width="194" x="32" y="197.9375"/>
        <ellipse cx="47" cy="213.9375" fill="#B4A7E5" rx="11" ry="11" style="stroke:#A80036;stroke-width:1.0;"/>
        <path d="M42.9219,209.7031 L42.9219,207.5469 L50.3125,207.5469 L50.3125,209.7031 L47.8438,209.7031 L47.8438,217.7813 L50.3125,217.7813 L50.3125,219.9375 L42.9219,219.9375 L42.9219,217.7813 L45.3906,217.7813 L45.3906,209.7031 L42.9219,209.7031 Z " fill="#000000"/>
        <text fill="#000000" font-family="sans-serif" font-size="14" font-style="italic" lengthAdjust="spacing" textLength="162" x="61" y="218.7842">Interface_food_mutable</text>
        <line style="stroke:#A80036;stroke-width:1.5;" x1="33" x2="225" y1="229.9375" y2="229.9375"/>
        <line style="stroke:#A80036;stroke-width:1.5;" x1="33" x2="225" y1="237.9375" y2="237.9375"/>
        <!--MD5=[7c9196262ebc078710eb219e84105d34]
class io.github.xjrga.foods.Food-->
        <rect codeLine="40" fill="#FEFECE" filter="url(#f49f6kacghvks)" height="48" id="io.github.xjrga.foods.Food" style="stroke:#A80036;stroke-width:1.5;" width="67" x="284.5" y="428.9375"/>
        <ellipse cx="299.5" cy="444.9375" fill="#ADD1B2" rx="11" ry="11" style="stroke:#A80036;stroke-width:1.0;"/>
        <path d="M302.4688,450.5781 Q301.8906,450.875 301.25,451.0156 Q300.6094,451.1719 299.9063,451.1719 Q297.4063,451.1719 296.0781,449.5313 Q294.7656,447.875 294.7656,444.75 Q294.7656,441.625 296.0781,439.9688 Q297.4063,438.3125 299.9063,438.3125 Q300.6094,438.3125 301.25,438.4688 Q301.9063,438.625 302.4688,438.9219 L302.4688,441.6406 Q301.8438,441.0625 301.25,440.7969 Q300.6563,440.5156 300.0313,440.5156 Q298.6875,440.5156 298,441.5938 Q297.3125,442.6563 297.3125,444.75 Q297.3125,446.8438 298,447.9219 Q298.6875,448.9844 300.0313,448.9844 Q300.6563,448.9844 301.25,448.7188 Q301.8438,448.4375 302.4688,447.8594 L302.4688,450.5781 Z " fill="#000000"/>
        <text fill="#000000" font-family="sans-serif" font-size="14" lengthAdjust="spacing" textLength="35" x="313.5" y="449.7842">Food</text>
        <line style="stroke:#A80036;stroke-width:1.5;" x1="285.5" x2="350.5" y1="460.9375" y2="460.9375"/>
        <line style="stroke:#A80036;stroke-width:1.5;" x1="285.5" x2="350.5" y1="468.9375" y2="468.9375"/>
        <!--MD5=[0be62221c98dc9d463d100b352db8c1f]
class io.github.xjrga.foods.Food_multiplier-->
        <rect codeLine="41" fill="#FEFECE" filter="url(#f49f6kacghvks)" height="48" id="io.github.xjrga.foods.Food_multiplier" style="stroke:#A80036;stroke-width:1.5;" width="136" x="282" y="305.9375"/>
        <ellipse cx="297" cy="321.9375" fill="#ADD1B2" rx="11" ry="11" style="stroke:#A80036;stroke-width:1.0;"/>
        <path d="M299.9688,327.5781 Q299.3906,327.875 298.75,328.0156 Q298.1094,328.1719 297.4063,328.1719 Q294.9063,328.1719 293.5781,326.5313 Q292.2656,324.875 292.2656,321.75 Q292.2656,318.625 293.5781,316.9688 Q294.9063,315.3125 297.4063,315.3125 Q298.1094,315.3125 298.75,315.4688 Q299.4063,315.625 299.9688,315.9219 L299.9688,318.6406 Q299.3438,318.0625 298.75,317.7969 Q298.1563,317.5156 297.5313,317.5156 Q296.1875,317.5156 295.5,318.5938 Q294.8125,319.6563 294.8125,321.75 Q294.8125,323.8438 295.5,324.9219 Q296.1875,325.9844 297.5313,325.9844 Q298.1563,325.9844 298.75,325.7188 Q299.3438,325.4375 299.9688,324.8594 L299.9688,327.5781 Z " fill="#000000"/>
        <text fill="#000000" font-family="sans-serif" font-size="14" lengthAdjust="spacing" textLength="104" x="311" y="326.7842">Food_multiplier</text>
        <line style="stroke:#A80036;stroke-width:1.5;" x1="283" x2="417" y1="337.9375" y2="337.9375"/>
        <line style="stroke:#A80036;stroke-width:1.5;" x1="283" x2="417" y1="345.9375" y2="345.9375"/>
        <!--MD5=[e2a86503eba7d2970b27dafcc613458c]
class io.github.xjrga.foods.Food_mutable-->
        <rect codeLine="43" fill="#FEFECE" filter="url(#f49f6kacghvks)" height="48" id="io.github.xjrga.foods.Food_mutable" style="stroke:#A80036;stroke-width:1.5;" width="130" x="117" y="305.9375"/>
        <ellipse cx="132" cy="321.9375" fill="#ADD1B2" rx="11" ry="11" style="stroke:#A80036;stroke-width:1.0;"/>
        <path d="M134.9688,327.5781 Q134.3906,327.875 133.75,328.0156 Q133.1094,328.1719 132.4063,328.1719 Q129.9063,328.1719 128.5781,326.5313 Q127.2656,324.875 127.2656,321.75 Q127.2656,318.625 128.5781,316.9688 Q129.9063,315.3125 132.4063,315.3125 Q133.1094,315.3125 133.75,315.4688 Q134.4063,315.625 134.9688,315.9219 L134.9688,318.6406 Q134.3438,318.0625 133.75,317.7969 Q133.1563,317.5156 132.5313,317.5156 Q131.1875,317.5156 130.5,318.5938 Q129.8125,319.6563 129.8125,321.75 Q129.8125,323.8438 130.5,324.9219 Q131.1875,325.9844 132.5313,325.9844 Q133.1563,325.9844 133.75,325.7188 Q134.3438,325.4375 134.9688,324.8594 L134.9688,327.5781 Z " fill="#000000"/>
        <text fill="#000000" font-family="sans-serif" font-size="14" lengthAdjust="spacing" textLength="98" x="146" y="326.7842">Food_mutable</text>
        <line style="stroke:#A80036;stroke-width:1.5;" x1="118" x2="246" y1="337.9375" y2="337.9375"/>
        <line style="stroke:#A80036;stroke-width:1.5;" x1="118" x2="246" y1="345.9375" y2="345.9375"/>
        <!--MD5=[00902a87e02705cc65597b01a52f1d89]
class io.github.xjrga.foods.Food_summator-->
        <rect codeLine="44" fill="#FEFECE" filter="url(#f49f6kacghvks)" height="48" id="io.github.xjrga.foods.Food_summator" style="stroke:#A80036;stroke-width:1.5;" width="144" x="490" y="305.9375"/>
        <ellipse cx="505" cy="321.9375" fill="#ADD1B2" rx="11" ry="11" style="stroke:#A80036;stroke-width:1.0;"/>
        <path d="M507.9688,327.5781 Q507.3906,327.875 506.75,328.0156 Q506.1094,328.1719 505.4063,328.1719 Q502.9063,328.1719 501.5781,326.5313 Q500.2656,324.875 500.2656,321.75 Q500.2656,318.625 501.5781,316.9688 Q502.9063,315.3125 505.4063,315.3125 Q506.1094,315.3125 506.75,315.4688 Q507.4063,315.625 507.9688,315.9219 L507.9688,318.6406 Q507.3438,318.0625 506.75,317.7969 Q506.1563,317.5156 505.5313,317.5156 Q504.1875,317.5156 503.5,318.5938 Q502.8125,319.6563 502.8125,321.75 Q502.8125,323.8438 503.5,324.9219 Q504.1875,325.9844 505.5313,325.9844 Q506.1563,325.9844 506.75,325.7188 Q507.3438,325.4375 507.9688,324.8594 L507.9688,327.5781 Z " fill="#000000"/>
        <text fill="#000000" font-family="sans-serif" font-size="14" lengthAdjust="spacing" textLength="112" x="519" y="326.7842">Food_summator</text>
        <line style="stroke:#A80036;stroke-width:1.5;" x1="491" x2="633" y1="337.9375" y2="337.9375"/>
        <line style="stroke:#A80036;stroke-width:1.5;" x1="491" x2="633" y1="345.9375" y2="345.9375"/>
        <!--MD5=[810f3ee04e7cb186e92b907d981bc880]
class io.github.xjrga.foods.Coefficient_food-->
        <rect fill="#FEFECE" filter="url(#f49f6kacghvks)" height="48" id="io.github.xjrga.foods.Coefficient_food" style="stroke:#A80036;stroke-width:1.5;" width="143" x="190.5" y="89.9375"/>
        <ellipse cx="205.5" cy="105.9375" fill="#ADD1B2" rx="11" ry="11" style="stroke:#A80036;stroke-width:1.0;"/>
        <path d="M208.4688,111.5781 Q207.8906,111.875 207.25,112.0156 Q206.6094,112.1719 205.9063,112.1719 Q203.4063,112.1719 202.0781,110.5313 Q200.7656,108.875 200.7656,105.75 Q200.7656,102.625 202.0781,100.9688 Q203.4063,99.3125 205.9063,99.3125 Q206.6094,99.3125 207.25,99.4688 Q207.9063,99.625 208.4688,99.9219 L208.4688,102.6406 Q207.8438,102.0625 207.25,101.7969 Q206.6563,101.5156 206.0313,101.5156 Q204.6875,101.5156 204,102.5938 Q203.3125,103.6563 203.3125,105.75 Q203.3125,107.8438 204,108.9219 Q204.6875,109.9844 206.0313,109.9844 Q206.6563,109.9844 207.25,109.7188 Q207.8438,109.4375 208.4688,108.8594 L208.4688,111.5781 Z " fill="#000000"/>
        <text fill="#000000" font-family="sans-serif" font-size="14" lengthAdjust="spacing" textLength="111" x="219.5" y="110.7842">Coefficient_food</text>
        <line style="stroke:#A80036;stroke-width:1.5;" x1="191.5" x2="332.5" y1="121.9375" y2="121.9375"/>
        <line style="stroke:#A80036;stroke-width:1.5;" x1="191.5" x2="332.5" y1="129.9375" y2="129.9375"/>
        <!--MD5=[ba5044e77b68fa983ebd462853f0c1f9]
class io.github.xjrga.foods.Coefficient_nutrient-->
        <rect fill="#FEFECE" filter="url(#f49f6kacghvks)" height="48" id="io.github.xjrga.foods.Coefficient_nutrient" style="stroke:#A80036;stroke-width:1.5;" width="166" x="369" y="89.9375"/>
        <ellipse cx="384" cy="105.9375" fill="#ADD1B2" rx="11" ry="11" style="stroke:#A80036;stroke-width:1.0;"/>
        <path d="M386.9688,111.5781 Q386.3906,111.875 385.75,112.0156 Q385.1094,112.1719 384.4063,112.1719 Q381.9063,112.1719 380.5781,110.5313 Q379.2656,108.875 379.2656,105.75 Q379.2656,102.625 380.5781,100.9688 Q381.9063,99.3125 384.4063,99.3125 Q385.1094,99.3125 385.75,99.4688 Q386.4063,99.625 386.9688,99.9219 L386.9688,102.6406 Q386.3438,102.0625 385.75,101.7969 Q385.1563,101.5156 384.5313,101.5156 Q383.1875,101.5156 382.5,102.5938 Q381.8125,103.6563 381.8125,105.75 Q381.8125,107.8438 382.5,108.9219 Q383.1875,109.9844 384.5313,109.9844 Q385.1563,109.9844 385.75,109.7188 Q386.3438,109.4375 386.9688,108.8594 L386.9688,111.5781 Z " fill="#000000"/>
        <text fill="#000000" font-family="sans-serif" font-size="14" lengthAdjust="spacing" textLength="134" x="398" y="110.7842">Coefficient_nutrient</text>
        <line style="stroke:#A80036;stroke-width:1.5;" x1="370" x2="534" y1="121.9375" y2="121.9375"/>
        <line style="stroke:#A80036;stroke-width:1.5;" x1="370" x2="534" y1="129.9375" y2="129.9375"/>
        <!--MD5=[3d09552a1e5e53c15c8ae4d52d183b26]
class io.github.xjrga.foods.Chef-->
        <rect fill="#FEFECE" filter="url(#f49f6kacghvks)" height="48" id="io.github.xjrga.foods.Chef" style="stroke:#A80036;stroke-width:1.5;" width="64" x="570" y="89.9375"/>
        <ellipse cx="585" cy="105.9375" fill="#ADD1B2" rx="11" ry="11" style="stroke:#A80036;stroke-width:1.0;"/>
        <path d="M587.9688,111.5781 Q587.3906,111.875 586.75,112.0156 Q586.1094,112.1719 585.4063,112.1719 Q582.9063,112.1719 581.5781,110.5313 Q580.2656,108.875 580.2656,105.75 Q580.2656,102.625 581.5781,100.9688 Q582.9063,99.3125 585.4063,99.3125 Q586.1094,99.3125 586.75,99.4688 Q587.4063,99.625 587.9688,99.9219 L587.9688,102.6406 Q587.3438,102.0625 586.75,101.7969 Q586.1563,101.5156 585.5313,101.5156 Q584.1875,101.5156 583.5,102.5938 Q582.8125,103.6563 582.8125,105.75 Q582.8125,107.8438 583.5,108.9219 Q584.1875,109.9844 585.5313,109.9844 Q586.1563,109.9844 586.75,109.7188 Q587.3438,109.4375 587.9688,108.8594 L587.9688,111.5781 Z " fill="#000000"/>
        <text fill="#000000" font-family="sans-serif" font-size="14" lengthAdjust="spacing" textLength="32" x="599" y="110.7842">Chef</text>
        <line style="stroke:#A80036;stroke-width:1.5;" x1="571" x2="633" y1="121.9375" y2="121.9375"/>
        <line style="stroke:#A80036;stroke-width:1.5;" x1="571" x2="633" y1="129.9375" y2="129.9375"/>
        <!--MD5=[1e680e2e3ec7820561f64151e5bf28a3]
class io.github.xjrga.foods.data.Dietary_reference_intake-->
        <rect codeLine="11" fill="#FEFECE" filter="url(#f49f6kacghvks)" height="48" id="io.github.xjrga.foods.data.Dietary_reference_intake" style="stroke:#A80036;stroke-width:1.5;" width="203" x="807.5" y="305.9375"/>
        <ellipse cx="822.5" cy="321.9375" fill="#EB937F" rx="11" ry="11" style="stroke:#A80036;stroke-width:1.0;"/>
        <path d="M826.6094,327.9375 L818.8906,327.9375 L818.8906,315.5469 L826.6094,315.5469 L826.6094,317.7031 L821.3438,317.7031 L821.3438,320.375 L826.1094,320.375 L826.1094,322.5313 L821.3438,322.5313 L821.3438,325.7813 L826.6094,325.7813 L826.6094,327.9375 Z " fill="#000000"/>
        <text fill="#000000" font-family="sans-serif" font-size="14" lengthAdjust="spacing" textLength="171" x="836.5" y="326.7842">Dietary_reference_intake</text>
        <line style="stroke:#A80036;stroke-width:1.5;" x1="808.5" x2="1009.5" y1="337.9375" y2="337.9375"/>
        <line style="stroke:#A80036;stroke-width:1.5;" x1="808.5" x2="1009.5" y1="345.9375" y2="345.9375"/>
        <!--MD5=[6ee588901d1adafdcb75762dbb85378e]
class io.github.xjrga.foods.data.Snacks-->
        <rect codeLine="47" fill="#FEFECE" filter="url(#f49f6kacghvks)" height="48" id="io.github.xjrga.foods.data.Snacks" style="stroke:#A80036;stroke-width:1.5;" width="82" x="690" y="305.9375"/>
        <ellipse cx="705" cy="321.9375" fill="#EB937F" rx="11" ry="11" style="stroke:#A80036;stroke-width:1.0;"/>
        <path d="M709.1094,327.9375 L701.3906,327.9375 L701.3906,315.5469 L709.1094,315.5469 L709.1094,317.7031 L703.8438,317.7031 L703.8438,320.375 L708.6094,320.375 L708.6094,322.5313 L703.8438,322.5313 L703.8438,325.7813 L709.1094,325.7813 L709.1094,327.9375 Z " fill="#000000"/>
        <text fill="#000000" font-family="sans-serif" font-size="14" lengthAdjust="spacing" textLength="50" x="719" y="326.7842">Snacks</text>
        <line style="stroke:#A80036;stroke-width:1.5;" x1="691" x2="771" y1="337.9375" y2="337.9375"/>
        <line style="stroke:#A80036;stroke-width:1.5;" x1="691" x2="771" y1="345.9375" y2="345.9375"/>
        <!--MD5=[14ac301c235999a28960d9829767eff7]
reverse link io.github.xjrga.foods.Interface_food to io.github.xjrga.foods.Food-->
        <path d="M433.48,260.5075 C434.01,261.3075 434.52,262.1175 435,262.9375 C460.79,307.0675 459.66,333.1675 435,377.9375 C417.38,409.9375 379.43,430.0275 351.51,441.0675 " fill="none" id="io.github.xjrga.foods.Interface_food-backto-io.github.xjrga.foods.Food" style="stroke:#A80036;stroke-width:1.0;stroke-dasharray:7.0,7.0;"/>
        <polygon fill="none" points="428.4,265.3275,419.66,246.0275,438.53,255.6575,428.4,265.3275" style="stroke:#A80036;stroke-width:1.0;"/>
        <!--MD5=[5264dfe4edd38a77d71e9ae22bc08aca]
reverse link io.github.xjrga.foods.Interface_food to io.github.xjrga.foods.Food_multiplier-->
        <path d="M345.85,265.4775 C343.45,279.1675 342.1,293.8375 342.31,305.6175 " fill="none" id="io.github.xjrga.foods.Interface_food-backto-io.github.xjrga.foods.Food_multiplier" style="stroke:#A80036;stroke-width:1.0;stroke-dasharray:7.0,7.0;"/>
        <polygon fill="none" points="339.03,263.9175,350.24,245.9375,352.69,266.9875,339.03,263.9175" style="stroke:#A80036;stroke-width:1.0;"/>
        <!--MD5=[5264dfe4edd38a77d71e9ae22bc08aca]
reverse link io.github.xjrga.foods.Interface_food to io.github.xjrga.foods.Food_multiplier-->
        <path codeLine="46" d="M372.37,251.0675 C372.21,268.0875 369.15,289.5375 364.49,305.6175 " fill="none" id="io.github.xjrga.foods.Interface_food-backto-io.github.xjrga.foods.Food_multiplier-1" style="stroke:#A80036;stroke-width:1.0;stroke-dasharray:7.0,7.0;"/>
        <polygon fill="#A80036" points="372.32,245.9375,368.4231,254.9826,372.3771,250.9372,376.4226,254.8912,372.32,245.9375" style="stroke:#A80036;stroke-width:1.0;"/>
        <!--MD5=[e488ad006249624fb2ec0398e0b6f594]
reverse link io.github.xjrga.foods.Interface_food to io.github.xjrga.foods.Food_mutable-->
        <path d="M280,254.3575 C274.5,257.0875 269.12,259.9475 264,262.9375 C243.33,275.0175 222.35,292.0175 206.78,305.7375 " fill="none" id="io.github.xjrga.foods.Interface_food-backto-io.github.xjrga.foods.Food_mutable" style="stroke:#A80036;stroke-width:1.0;stroke-dasharray:7.0,7.0;"/>
        <polygon fill="none" points="277.29,247.9075,298.38,245.9275,283.13,260.6275,277.29,247.9075" style="stroke:#A80036;stroke-width:1.0;"/>
        <!--MD5=[b3473fa434d7a38fc38ccaa2a0984fef]
reverse link io.github.xjrga.foods.Interface_food_mutable to io.github.xjrga.foods.Food_mutable-->
        <path d="M149.55,264.0275 C156.6,278.1375 164.24,293.4175 170.34,305.6175 " fill="none" id="io.github.xjrga.foods.Interface_food_mutable-backto-io.github.xjrga.foods.Food_mutable" style="stroke:#A80036;stroke-width:1.0;stroke-dasharray:7.0,7.0;"/>
        <polygon fill="none" points="143.18,266.9575,140.5,245.9375,155.71,260.6975,143.18,266.9575" style="stroke:#A80036;stroke-width:1.0;"/>
        <!--MD5=[e9e418e95378078b1fdba427f0068c4b]
reverse link io.github.xjrga.foods.Interface_food to io.github.xjrga.foods.Food_summator-->
        <path d="M445.13,254.1275 C451.24,256.9575 457.26,259.9075 463,262.9375 C486.74,275.4775 511.9,292.3075 530.92,305.8275 " fill="none" id="io.github.xjrga.foods.Interface_food-backto-io.github.xjrga.foods.Food_summator" style="stroke:#A80036;stroke-width:1.0;stroke-dasharray:7.0,7.0;"/>
        <polygon fill="none" points="442.16,260.4675,426.67,245.9975,447.8,247.6475,442.16,260.4675" style="stroke:#A80036;stroke-width:1.0;"/>
        <!--MD5=[f6c878c0f123a4d90e0a5035920abac6]
reverse link io.github.xjrga.foods.Food_mutable to io.github.xjrga.foods.Food-->
        <path codeLine="45" d="M211.65,357.3175 C235.53,378.5675 268.8,408.1575 291.73,428.5675 " fill="none" id="io.github.xjrga.foods.Food_mutable-backto-io.github.xjrga.foods.Food" style="stroke:#A80036;stroke-width:1.0;stroke-dasharray:7.0,7.0;"/>
        <polygon fill="#A80036" points="207.9,353.9775,211.9501,362.9551,211.6299,357.3073,217.2777,356.9872,207.9,353.9775" style="stroke:#A80036;stroke-width:1.0;"/>
        <!--MD5=[59b7c3da6756f0fa3fbcb5868266e46b]
reverse link io.github.xjrga.foods.Interface_food to io.github.xjrga.foods.data.Snacks-->
        <path d="M449.97,229.8375 C520.8,236.4575 615.08,247.7075 650,262.9375 C672.78,272.8775 694.37,291.0775 709.53,305.8575 " fill="none" id="io.github.xjrga.foods.Interface_food-backto-io.github.xjrga.foods.data.Snacks" style="stroke:#A80036;stroke-width:1.0;stroke-dasharray:7.0,7.0;"/>
        <polygon fill="none" points="449.04,236.7775,429.75,228.0075,450.3,222.8375,449.04,236.7775" style="stroke:#A80036;stroke-width:1.0;"/>
        <!--MD5=[825b93faf4eff0ee7faed49d031ba867]
link io.github.xjrga.foods.Food_summator to java.util.ArrayList-->
        <path codeLine="48" d="M610.2,353.9675 C629.66,362.5175 652.55,371.6575 674,377.9375 C784.11,410.1775 914.64,430.3375 1001.71,441.3175 " fill="none" id="io.github.xjrga.foods.Food_summator-to-java.util.ArrayList" style="stroke:#A80036;stroke-width:1.0;stroke-dasharray:7.0,7.0;"/>
        <polygon fill="#A80036" points="1006.86,441.9675,998.4347,436.8671,1001.8997,441.3385,997.4283,444.8036,1006.86,441.9675" style="stroke:#A80036;stroke-width:1.0;"/>
        <!--MD5=[4fd545b23eecfc75b9fdc29940deb93d]
link io.github.xjrga.foods.Coefficient_food to java.util.ArrayList-->
        <path codeLine="49" d="M333.79,133.9475 C339.6,135.3475 345.39,136.6975 351,137.9375 C648.88,203.9275 791.21,68.1075 1026,262.9375 C1075.19,303.7575 1091.33,381.8675 1096.55,423.7475 " fill="none" id="io.github.xjrga.foods.Coefficient_food-to-java.util.ArrayList" style="stroke:#A80036;stroke-width:1.0;stroke-dasharray:7.0,7.0;"/>
        <polygon fill="#A80036" points="1097.17,428.9175,1100.0895,419.5113,1096.585,423.9518,1092.1444,420.4473,1097.17,428.9175" style="stroke:#A80036;stroke-width:1.0;"/>
        <!--MD5=[7145abf6474c9c1b0ebc136df250e5e2]
link io.github.xjrga.foods.Coefficient_nutrient to java.util.ArrayList-->
        <path codeLine="50" d="M535.07,134.8075 C540.78,135.9375 546.47,136.9975 552,137.9375 C670.59,158.1175 1008.21,109.7175 1090,197.9375 C1147.54,260.0075 1123.91,371.6575 1108.44,423.7475 " fill="none" id="io.github.xjrga.foods.Coefficient_nutrient-to-java.util.ArrayList" style="stroke:#A80036;stroke-width:1.0;stroke-dasharray:7.0,7.0;"/>
        <polygon fill="#A80036" points="1106.97,428.5975,1113.3977,421.1352,1108.4133,423.8103,1105.7382,418.826,1106.97,428.5975" style="stroke:#A80036;stroke-width:1.0;"/>
        <!--MD5=[e32aab7d78ce40d5455ff19cb298cf08]
reverse link io.github.xjrga.foods.Chef to java.util.ArrayList-->
        <path codeLine="51" d="M647.43,114.4475 C768.54,114.1975 1094.52,120.8575 1161,197.9375 C1213.25,258.5175 1188.33,302.7475 1161,377.9375 C1153.9,397.4675 1139.13,415.4375 1125.79,428.7875 " fill="none" id="io.github.xjrga.foods.Chef-backto-java.util.ArrayList" style="stroke:#A80036;stroke-width:1.0;stroke-dasharray:7.0,7.0;"/>
        <polygon fill="#FFFFFF" points="634.36,114.4975,640.3775,118.4711,646.3599,114.4448,640.3424,110.4712,634.36,114.4975" style="stroke:#A80036;stroke-width:1.0;"/>
        <!--MD5=[efc91f92319aefc76af0a2d8cda33911]
link io.github.xjrga.foods.Food_creator to io.github.xjrga.foods.Food_mutable-->
        <path codeLine="52" d="M155.62,132.5275 C187.71,145.1575 224.1,165.7675 243,197.9375 C263.23,232.3675 234.72,274.6275 210.26,301.6675 " fill="none" id="io.github.xjrga.foods.Food_creator-to-io.github.xjrga.foods.Food_mutable" style="stroke:#A80036;stroke-width:1.0;stroke-dasharray:7.0,7.0;"/>
        <polygon fill="#A80036" points="206.69,305.5475,215.74,301.662,210.0873,301.879,209.8704,296.2263,206.69,305.5475" style="stroke:#A80036;stroke-width:1.0;"/>
        <!--MD5=[9cedf5da43ab7411b12f6b886a985d7e]
link io.github.xjrga.foods.Food_creator to io.github.xjrga.foods.Interface_food-->
        <path codeLine="53" d="M152.59,137.9375 C196.13,155.0375 255.49,178.3375 300.23,195.9075 " fill="none" id="io.github.xjrga.foods.Food_creator-to-io.github.xjrga.foods.Interface_food" style="stroke:#A80036;stroke-width:1.0;stroke-dasharray:7.0,7.0;"/>
        <polygon fill="#A80036" points="305.06,197.7975,298.1519,190.7777,300.4078,195.9653,295.2203,198.2212,305.06,197.7975" style="stroke:#A80036;stroke-width:1.0;"/>
        <!--MD5=[6a590e070aa60e3bf9c5d240a8d155e0]
@startuml
title Simple Uml Diagram For Foods Library (Not all relationships shown)
<style>
title {
  HorizontalAlignment center
  FontSize 24
}
</style>
class java.util.ArrayList<Interface_food>
class io.github.xjrga.foods.Food_creator
'enum io.github.xjrga.foods.data.Atwater
enum io.github.xjrga.foods.data.Dietary_reference_intake
interface io.github.xjrga.foods.Interface_food
interface io.github.xjrga.foods.Interface_food_mutable
'enum io.github.xjrga.foods.data..data.American_indian_alaska_native_foods
'enum io.github.xjrga.foods.data..data.Baby_foods
'enum io.github.xjrga.foods.data..data.Baked_products
'enum io.github.xjrga.food.data.Beef_products
'enum io.github.xjrga.foods.data..data.Beverages
'enum io.github.xjrga.food.data.Breakfast_cereals
'enum io.github.xjrga.foods.data..data.Cereal_grains_and_pasta
'enum io.github.xjrga.food.data.Dairy_and_egg_products
'enum io.github.xjrga.foods.data..data.Fast_foods
'enum io.github.xjrga.foods.data..data.Fats_and_oils
'enum io.github.xjrga.food.data.Finfish_and_shellfish_products
'enum io.github.xjrga.foods.data..data.Fruits_and_fruit_juices
'enum io.github.xjrga.food.data.Glycemic_index_test_set
'enum io.github.xjrga.foods.data..data.Legumes_and_legume_products
'enum io.github.xjrga.food.data.Nut_and_seed_products
'enum io.github.xjrga.foods.data..data.Omega3
'enum io.github.xjrga.food.data.Pork_products
'enum io.github.xjrga.foods.data..data.Poultry_products
'enum io.github.xjrga.food.data.Protein_powders
'enum io.github.xjrga.foods.data..data.Sausages_and_luncheon_meats
'enum io.github.xjrga.food.data.Snacks
'enum io.github.xjrga.foods.data..data.Spices_and_herbs
'enum io.github.xjrga.food.data.Supplements
'enum io.github.xjrga.foods.data..data.Sweets
'enum io.github.xjrga.food.data.Vegetables_and_vegetable_products
'enum io.github.xjrga.foods.data..data.Atwater
class io.github.xjrga.foods.Food implements io.github.xjrga.foods.Interface_food
class io.github.xjrga.foods.Food_multiplier implements io.github.xjrga.foods.Interface_food
class io.github.xjrga.foods.Food_mutable implements io.github.xjrga.foods.Interface_food
class io.github.xjrga.foods.Food_mutable implements io.github.xjrga.foods.Interface_food_mutable
class io.github.xjrga.foods.Food_summator implements io.github.xjrga.foods.Interface_food
io.github.xjrga.foods.Food_mutable <.. io.github.xjrga.foods.Food
io.github.xjrga.foods.Interface_food <.. io.github.xjrga.foods.Food_multiplier
enum io.github.xjrga.foods.data.Snacks implements io.github.xjrga.foods.Interface_food
io.github.xjrga.foods.Food_summator ..> java.util.ArrayList 
io.github.xjrga.foods.Coefficient_food ..> java.util.ArrayList 
io.github.xjrga.foods.Coefficient_nutrient ..> java.util.ArrayList
io.github.xjrga.foods.Chef o.. java.util.ArrayList
io.github.xjrga.foods.Food_creator ..> io.github.xjrga.foods.Food_mutable
io.github.xjrga.foods.Food_creator ..> io.github.xjrga.foods.Interface_food
'io.github.xjrga.foods.Food_creator - -o io.github.xjrga.foods.Chef
'enum io.github.xjrga.foods.data.American_indian_alaska_native_foods - -|> io.github.xjrga.foods.Interface_food
'enum io.github.xjrga.foods.data.Baby_foods - -|> io.github.xjrga.foods.Interface_food
'enum io.github.xjrga.foods.data.Baked_products - -|> io.github.xjrga.foods.Interface_food
'enum io.github.xjrga.foods.data.Beef_products - -|> io.github.xjrga.foods.Interface_food
'enum io.github.xjrga.foods.data.Beverages - -|> io.github.xjrga.foods.Interface_food
'enum io.github.xjrga.foods.data.Breakfast_cereals - -|> io.github.xjrga.foods.Interface_food
'enum io.github.xjrga.foods.data.Cereal_grains_and_pasta - -|> io.github.xjrga.foods.Interface_food
'enum io.github.xjrga.foods.data.Dairy_and_egg_products implements io.github.xjrga.foods.Interface_food
'enum io.github.xjrga.foods.data.Fast_foods - -|> io.github.xjrga.foods.Interface_food
'enum io.github.xjrga.foods.data.Fats_and_oils - -|> io.github.xjrga.foods.Interface_food
'enum io.github.xjrga.foods.data.Finfish_and_shellfish_products - -|> io.github.xjrga.foods.Interface_food
'enum io.github.xjrga.foods.data.Fruits_and_fruit_juices - -|> io.github.xjrga.foods.Interface_food
'enum io.github.xjrga.foods.data.Glycemic_index_test_set - -|> io.github.xjrga.foods.Interface_food
'enum io.github.xjrga.foods.data.Legumes_and_legume_products - -|> io.github.xjrga.foods.Interface_food
'enum io.github.xjrga.foods.data.Nut_and_seed_products - -|> io.github.xjrga.foods.Interface_food
'enum io.github.xjrga.foods.data.Omega3 - -|> io.github.xjrga.foods.Interface_food
'enum io.github.xjrga.foods.data.Pork_products - -|> io.github.xjrga.foods.Interface_food
'enum io.github.xjrga.foods.data.Poultry_products - -|> io.github.xjrga.foods.Interface_food
'enum io.github.xjrga.foods.data.Protein_powders - -|> io.github.xjrga.foods.Interface_food
'enum io.github.xjrga.foods.data.Sausages_and_luncheon_meats - -|> io.github.xjrga.foods.Interface_food
'enum io.github.xjrga.foods.data.Snacks - -|> io.github.xjrga.foods.Interface_food
'enum io.github.xjrga.foods.data.Spices_and_herbs - -|> io.github.xjrga.foods.Interface_food
'enum io.github.xjrga.foods.data.Supplements - -|> io.github.xjrga.foods.Interface_food
'enum io.github.xjrga.foods.data.Sweets - -|> io.github.xjrga.foods.Interface_food
'enum io.github.xjrga.foods.data.Vegetables_and_vegetable_products - -|> io.github.xjrga.foods.Interface_food
@enduml

@startuml
title Simple Uml Diagram For Foods Library (Not all relationships shown)
<style>
title {
  HorizontalAlignment center
  FontSize 24
}
</style>
class java.util.ArrayList<Interface_food>
class io.github.xjrga.foods.Food_creator
enum io.github.xjrga.foods.data.Dietary_reference_intake
interface io.github.xjrga.foods.Interface_food
interface io.github.xjrga.foods.Interface_food_mutable
class io.github.xjrga.foods.Food implements io.github.xjrga.foods.Interface_food
class io.github.xjrga.foods.Food_multiplier implements io.github.xjrga.foods.Interface_food
class io.github.xjrga.foods.Food_mutable implements io.github.xjrga.foods.Interface_food
class io.github.xjrga.foods.Food_mutable implements io.github.xjrga.foods.Interface_food_mutable
class io.github.xjrga.foods.Food_summator implements io.github.xjrga.foods.Interface_food
io.github.xjrga.foods.Food_mutable <.. io.github.xjrga.foods.Food
io.github.xjrga.foods.Interface_food <.. io.github.xjrga.foods.Food_multiplier
enum io.github.xjrga.foods.data.Snacks implements io.github.xjrga.foods.Interface_food
io.github.xjrga.foods.Food_summator ..> java.util.ArrayList 
io.github.xjrga.foods.Coefficient_food ..> java.util.ArrayList 
io.github.xjrga.foods.Coefficient_nutrient ..> java.util.ArrayList
io.github.xjrga.foods.Chef o.. java.util.ArrayList
io.github.xjrga.foods.Food_creator ..> io.github.xjrga.foods.Food_mutable
io.github.xjrga.foods.Food_creator ..> io.github.xjrga.foods.Interface_food
@enduml

PlantUML version 1.2021.3(Mon Mar 22 11:53:19 CDT 2021)
(GPL source distribution)
Java Runtime: OpenJDK Runtime Environment
JVM: OpenJDK 64-Bit Server VM
Default Encoding: UTF-8
Language: en
Country: US
-->
    </g>
</svg>
